<mxfile host="app.diagrams.net" modified="2022-01-07T10:11:24.068Z" agent="5.0 (Macintosh)" etag="6SVnEHRj2eFDH7HXCSgS" version="16.2.2" type="github">
  <diagram id="h3AYmYu8t9chLSCs5fEP" name="Page-1">
    <mxGraphModel dx="1186" dy="651" grid="1" gridSize="10" guides="1" tooltips="1" connect="1" arrows="1" fold="1" page="1" pageScale="1" pageWidth="827" pageHeight="1169" math="0" shadow="0">
      <root>
        <mxCell id="0" />
        <mxCell id="1" parent="0" />
        <mxCell id="IMxw4ipOFPsha8fWRkUb-1" value="" style="shape=table;startSize=0;container=1;collapsible=0;childLayout=tableLayout;" parent="1" vertex="1">
          <mxGeometry x="110" y="210" width="1150" height="40" as="geometry" />
        </mxCell>
        <mxCell id="IMxw4ipOFPsha8fWRkUb-2" value="" style="shape=partialRectangle;collapsible=0;dropTarget=0;pointerEvents=0;fillColor=none;top=0;left=0;bottom=0;right=0;points=[[0,0.5],[1,0.5]];portConstraint=eastwest;" parent="IMxw4ipOFPsha8fWRkUb-1" vertex="1">
          <mxGeometry width="1150" height="40" as="geometry" />
        </mxCell>
        <mxCell id="IMxw4ipOFPsha8fWRkUb-3" value="&lt;b&gt;Use the product&amp;nbsp; and its device&lt;/b&gt;" style="shape=partialRectangle;html=1;whiteSpace=wrap;connectable=0;overflow=hidden;fillColor=none;top=0;left=0;bottom=0;right=0;pointerEvents=1;" parent="IMxw4ipOFPsha8fWRkUb-2" vertex="1">
          <mxGeometry width="1150" height="40" as="geometry" />
        </mxCell>
        <mxCell id="IMxw4ipOFPsha8fWRkUb-4" value="" style="shape=table;startSize=0;container=1;collapsible=0;childLayout=tableLayout;" parent="1" vertex="1">
          <mxGeometry x="110" y="250" width="290" height="40" as="geometry" />
        </mxCell>
        <mxCell id="IMxw4ipOFPsha8fWRkUb-5" value="" style="shape=partialRectangle;collapsible=0;dropTarget=0;pointerEvents=0;fillColor=none;top=0;left=0;bottom=0;right=0;points=[[0,0.5],[1,0.5]];portConstraint=eastwest;" parent="IMxw4ipOFPsha8fWRkUb-4" vertex="1">
          <mxGeometry width="290" height="40" as="geometry" />
        </mxCell>
        <mxCell id="IMxw4ipOFPsha8fWRkUb-6" value="Material required" style="shape=partialRectangle;html=1;whiteSpace=wrap;connectable=0;overflow=hidden;fillColor=none;top=0;left=0;bottom=0;right=0;pointerEvents=1;" parent="IMxw4ipOFPsha8fWRkUb-5" vertex="1">
          <mxGeometry width="290" height="40" as="geometry" />
        </mxCell>
        <mxCell id="IMxw4ipOFPsha8fWRkUb-7" value="" style="shape=table;startSize=0;container=1;collapsible=0;childLayout=tableLayout;" parent="1" vertex="1">
          <mxGeometry x="310" y="290" width="90" height="40" as="geometry" />
        </mxCell>
        <mxCell id="IMxw4ipOFPsha8fWRkUb-8" value="" style="shape=partialRectangle;collapsible=0;dropTarget=0;pointerEvents=0;fillColor=none;top=0;left=0;bottom=0;right=0;points=[[0,0.5],[1,0.5]];portConstraint=eastwest;" parent="IMxw4ipOFPsha8fWRkUb-7" vertex="1">
          <mxGeometry width="90" height="40" as="geometry" />
        </mxCell>
        <mxCell id="IMxw4ipOFPsha8fWRkUb-9" value="Firmware" style="shape=partialRectangle;html=1;whiteSpace=wrap;connectable=0;overflow=hidden;fillColor=none;top=0;left=0;bottom=0;right=0;pointerEvents=1;" parent="IMxw4ipOFPsha8fWRkUb-8" vertex="1">
          <mxGeometry width="90" height="40" as="geometry" />
        </mxCell>
        <mxCell id="IMxw4ipOFPsha8fWRkUb-10" value="" style="shape=table;startSize=0;container=1;collapsible=0;childLayout=tableLayout;" parent="1" vertex="1">
          <mxGeometry x="210" y="290" width="100" height="40" as="geometry" />
        </mxCell>
        <mxCell id="IMxw4ipOFPsha8fWRkUb-11" value="" style="shape=partialRectangle;collapsible=0;dropTarget=0;pointerEvents=0;fillColor=none;top=0;left=0;bottom=0;right=0;points=[[0,0.5],[1,0.5]];portConstraint=eastwest;" parent="IMxw4ipOFPsha8fWRkUb-10" vertex="1">
          <mxGeometry width="100" height="40" as="geometry" />
        </mxCell>
        <mxCell id="IMxw4ipOFPsha8fWRkUb-12" value="Software" style="shape=partialRectangle;html=1;whiteSpace=wrap;connectable=0;overflow=hidden;fillColor=none;top=0;left=0;bottom=0;right=0;pointerEvents=1;" parent="IMxw4ipOFPsha8fWRkUb-11" vertex="1">
          <mxGeometry width="100" height="40" as="geometry" />
        </mxCell>
        <mxCell id="IMxw4ipOFPsha8fWRkUb-13" value="" style="shape=table;startSize=0;container=1;collapsible=0;childLayout=tableLayout;" parent="1" vertex="1">
          <mxGeometry x="110" y="290" width="100" height="40" as="geometry" />
        </mxCell>
        <mxCell id="IMxw4ipOFPsha8fWRkUb-14" value="" style="shape=partialRectangle;collapsible=0;dropTarget=0;pointerEvents=0;fillColor=none;top=0;left=0;bottom=0;right=0;points=[[0,0.5],[1,0.5]];portConstraint=eastwest;" parent="IMxw4ipOFPsha8fWRkUb-13" vertex="1">
          <mxGeometry width="100" height="40" as="geometry" />
        </mxCell>
        <mxCell id="IMxw4ipOFPsha8fWRkUb-15" value="App" style="shape=partialRectangle;html=1;whiteSpace=wrap;connectable=0;overflow=hidden;fillColor=none;top=0;left=0;bottom=0;right=0;pointerEvents=1;" parent="IMxw4ipOFPsha8fWRkUb-14" vertex="1">
          <mxGeometry width="100" height="40" as="geometry" />
        </mxCell>
        <mxCell id="IMxw4ipOFPsha8fWRkUb-16" value="" style="shape=table;startSize=0;container=1;collapsible=0;childLayout=tableLayout;" parent="1" vertex="1">
          <mxGeometry x="400" y="250" width="860" height="40" as="geometry" />
        </mxCell>
        <mxCell id="IMxw4ipOFPsha8fWRkUb-17" value="" style="shape=partialRectangle;collapsible=0;dropTarget=0;pointerEvents=0;fillColor=none;top=0;left=0;bottom=0;right=0;points=[[0,0.5],[1,0.5]];portConstraint=eastwest;" parent="IMxw4ipOFPsha8fWRkUb-16" vertex="1">
          <mxGeometry width="860" height="40" as="geometry" />
        </mxCell>
        <mxCell id="IMxw4ipOFPsha8fWRkUb-18" value="Procedure" style="shape=partialRectangle;html=1;whiteSpace=wrap;connectable=0;overflow=hidden;fillColor=none;top=0;left=0;bottom=0;right=0;pointerEvents=1;" parent="IMxw4ipOFPsha8fWRkUb-17" vertex="1">
          <mxGeometry width="860" height="40" as="geometry" />
        </mxCell>
        <mxCell id="IMxw4ipOFPsha8fWRkUb-19" value="" style="shape=table;startSize=0;container=1;collapsible=0;childLayout=tableLayout;" parent="1" vertex="1">
          <mxGeometry x="400" y="290" width="280" height="40" as="geometry" />
        </mxCell>
        <mxCell id="IMxw4ipOFPsha8fWRkUb-20" value="" style="shape=partialRectangle;collapsible=0;dropTarget=0;pointerEvents=0;fillColor=none;top=0;left=0;bottom=0;right=0;points=[[0,0.5],[1,0.5]];portConstraint=eastwest;" parent="IMxw4ipOFPsha8fWRkUb-19" vertex="1">
          <mxGeometry width="280" height="40" as="geometry" />
        </mxCell>
        <mxCell id="IMxw4ipOFPsha8fWRkUb-21" value="Installation instruction" style="shape=partialRectangle;html=1;whiteSpace=wrap;connectable=0;overflow=hidden;fillColor=none;top=0;left=0;bottom=0;right=0;pointerEvents=1;" parent="IMxw4ipOFPsha8fWRkUb-20" vertex="1">
          <mxGeometry width="280" height="40" as="geometry" />
        </mxCell>
        <mxCell id="IMxw4ipOFPsha8fWRkUb-22" value="" style="shape=table;startSize=0;container=1;collapsible=0;childLayout=tableLayout;" parent="1" vertex="1">
          <mxGeometry x="680" y="290" width="250" height="40" as="geometry" />
        </mxCell>
        <mxCell id="IMxw4ipOFPsha8fWRkUb-23" value="" style="shape=partialRectangle;collapsible=0;dropTarget=0;pointerEvents=0;fillColor=none;top=0;left=0;bottom=0;right=0;points=[[0,0.5],[1,0.5]];portConstraint=eastwest;" parent="IMxw4ipOFPsha8fWRkUb-22" vertex="1">
          <mxGeometry width="250" height="40" as="geometry" />
        </mxCell>
        <mxCell id="IMxw4ipOFPsha8fWRkUb-24" value="Setup instruction" style="shape=partialRectangle;html=1;whiteSpace=wrap;connectable=0;overflow=hidden;fillColor=none;top=0;left=0;bottom=0;right=0;pointerEvents=1;" parent="IMxw4ipOFPsha8fWRkUb-23" vertex="1">
          <mxGeometry width="250" height="40" as="geometry" />
        </mxCell>
        <mxCell id="IMxw4ipOFPsha8fWRkUb-25" value="" style="shape=table;startSize=0;container=1;collapsible=0;childLayout=tableLayout;" parent="1" vertex="1">
          <mxGeometry x="930" y="290" width="330" height="40" as="geometry" />
        </mxCell>
        <mxCell id="IMxw4ipOFPsha8fWRkUb-26" value="" style="shape=partialRectangle;collapsible=0;dropTarget=0;pointerEvents=0;fillColor=none;top=0;left=0;bottom=0;right=0;points=[[0,0.5],[1,0.5]];portConstraint=eastwest;" parent="IMxw4ipOFPsha8fWRkUb-25" vertex="1">
          <mxGeometry width="330" height="40" as="geometry" />
        </mxCell>
        <mxCell id="IMxw4ipOFPsha8fWRkUb-27" value="How to update the firmware" style="shape=partialRectangle;html=1;whiteSpace=wrap;connectable=0;overflow=hidden;fillColor=none;top=0;left=0;bottom=0;right=0;pointerEvents=1;" parent="IMxw4ipOFPsha8fWRkUb-26" vertex="1">
          <mxGeometry width="330" height="40" as="geometry" />
        </mxCell>
        <mxCell id="IMxw4ipOFPsha8fWRkUb-28" value="" style="shape=table;startSize=0;container=1;collapsible=0;childLayout=tableLayout;" parent="1" vertex="1">
          <mxGeometry x="110" y="330" width="100" height="190" as="geometry" />
        </mxCell>
        <mxCell id="IMxw4ipOFPsha8fWRkUb-29" value="" style="shape=partialRectangle;collapsible=0;dropTarget=0;pointerEvents=0;fillColor=none;top=0;left=0;bottom=0;right=0;points=[[0,0.5],[1,0.5]];portConstraint=eastwest;" parent="IMxw4ipOFPsha8fWRkUb-28" vertex="1">
          <mxGeometry width="100" height="190" as="geometry" />
        </mxCell>
        <mxCell id="IMxw4ipOFPsha8fWRkUb-30" value="" style="shape=partialRectangle;html=1;whiteSpace=wrap;connectable=0;overflow=hidden;fillColor=none;top=0;left=0;bottom=0;right=0;pointerEvents=1;" parent="IMxw4ipOFPsha8fWRkUb-29" vertex="1">
          <mxGeometry width="100" height="190" as="geometry" />
        </mxCell>
        <mxCell id="IMxw4ipOFPsha8fWRkUb-31" value="" style="shape=table;startSize=0;container=1;collapsible=0;childLayout=tableLayout;" parent="1" vertex="1">
          <mxGeometry x="210" y="330" width="100" height="190" as="geometry" />
        </mxCell>
        <mxCell id="IMxw4ipOFPsha8fWRkUb-32" value="" style="shape=partialRectangle;collapsible=0;dropTarget=0;pointerEvents=0;fillColor=none;top=0;left=0;bottom=0;right=0;points=[[0,0.5],[1,0.5]];portConstraint=eastwest;" parent="IMxw4ipOFPsha8fWRkUb-31" vertex="1">
          <mxGeometry width="100" height="190" as="geometry" />
        </mxCell>
        <mxCell id="IMxw4ipOFPsha8fWRkUb-33" value="" style="shape=partialRectangle;html=1;whiteSpace=wrap;connectable=0;overflow=hidden;fillColor=none;top=0;left=0;bottom=0;right=0;pointerEvents=1;" parent="IMxw4ipOFPsha8fWRkUb-32" vertex="1">
          <mxGeometry width="100" height="190" as="geometry" />
        </mxCell>
        <mxCell id="IMxw4ipOFPsha8fWRkUb-34" value="" style="shape=table;startSize=0;container=1;collapsible=0;childLayout=tableLayout;" parent="1" vertex="1">
          <mxGeometry x="310" y="330" width="90" height="190" as="geometry" />
        </mxCell>
        <mxCell id="IMxw4ipOFPsha8fWRkUb-35" value="" style="shape=partialRectangle;collapsible=0;dropTarget=0;pointerEvents=0;fillColor=none;top=0;left=0;bottom=0;right=0;points=[[0,0.5],[1,0.5]];portConstraint=eastwest;" parent="IMxw4ipOFPsha8fWRkUb-34" vertex="1">
          <mxGeometry width="90" height="190" as="geometry" />
        </mxCell>
        <mxCell id="IMxw4ipOFPsha8fWRkUb-36" value="" style="shape=partialRectangle;html=1;whiteSpace=wrap;connectable=0;overflow=hidden;fillColor=none;top=0;left=0;bottom=0;right=0;pointerEvents=1;" parent="IMxw4ipOFPsha8fWRkUb-35" vertex="1">
          <mxGeometry width="90" height="190" as="geometry" />
        </mxCell>
        <mxCell id="IMxw4ipOFPsha8fWRkUb-37" value="" style="shape=table;startSize=0;container=1;collapsible=0;childLayout=tableLayout;" parent="1" vertex="1">
          <mxGeometry x="400" y="330" width="280" height="190" as="geometry" />
        </mxCell>
        <mxCell id="IMxw4ipOFPsha8fWRkUb-38" value="" style="shape=partialRectangle;collapsible=0;dropTarget=0;pointerEvents=0;fillColor=none;top=0;left=0;bottom=0;right=0;points=[[0,0.5],[1,0.5]];portConstraint=eastwest;" parent="IMxw4ipOFPsha8fWRkUb-37" vertex="1">
          <mxGeometry width="280" height="190" as="geometry" />
        </mxCell>
        <mxCell id="IMxw4ipOFPsha8fWRkUb-39" value="" style="shape=partialRectangle;html=1;whiteSpace=wrap;connectable=0;overflow=hidden;fillColor=none;top=0;left=0;bottom=0;right=0;pointerEvents=1;" parent="IMxw4ipOFPsha8fWRkUb-38" vertex="1">
          <mxGeometry width="280" height="190" as="geometry" />
        </mxCell>
        <mxCell id="IMxw4ipOFPsha8fWRkUb-40" value="" style="shape=table;startSize=0;container=1;collapsible=0;childLayout=tableLayout;" parent="1" vertex="1">
          <mxGeometry x="680" y="330" width="250" height="190" as="geometry" />
        </mxCell>
        <mxCell id="IMxw4ipOFPsha8fWRkUb-41" value="" style="shape=partialRectangle;collapsible=0;dropTarget=0;pointerEvents=0;fillColor=none;top=0;left=0;bottom=0;right=0;points=[[0,0.5],[1,0.5]];portConstraint=eastwest;" parent="IMxw4ipOFPsha8fWRkUb-40" vertex="1">
          <mxGeometry width="250" height="190" as="geometry" />
        </mxCell>
        <mxCell id="IMxw4ipOFPsha8fWRkUb-42" value="" style="shape=partialRectangle;html=1;whiteSpace=wrap;connectable=0;overflow=hidden;fillColor=none;top=0;left=0;bottom=0;right=0;pointerEvents=1;" parent="IMxw4ipOFPsha8fWRkUb-41" vertex="1">
          <mxGeometry width="250" height="190" as="geometry" />
        </mxCell>
        <mxCell id="IMxw4ipOFPsha8fWRkUb-43" value="" style="shape=table;startSize=0;container=1;collapsible=0;childLayout=tableLayout;" parent="1" vertex="1">
          <mxGeometry x="930" y="330" width="330" height="190" as="geometry" />
        </mxCell>
        <mxCell id="IMxw4ipOFPsha8fWRkUb-44" value="" style="shape=partialRectangle;collapsible=0;dropTarget=0;pointerEvents=0;fillColor=none;top=0;left=0;bottom=0;right=0;points=[[0,0.5],[1,0.5]];portConstraint=eastwest;" parent="IMxw4ipOFPsha8fWRkUb-43" vertex="1">
          <mxGeometry width="330" height="190" as="geometry" />
        </mxCell>
        <mxCell id="IMxw4ipOFPsha8fWRkUb-45" value="" style="shape=partialRectangle;html=1;whiteSpace=wrap;connectable=0;overflow=hidden;fillColor=none;top=0;left=0;bottom=0;right=0;pointerEvents=1;" parent="IMxw4ipOFPsha8fWRkUb-44" vertex="1">
          <mxGeometry width="330" height="190" as="geometry" />
        </mxCell>
      </root>
    </mxGraphModel>
  </diagram>
</mxfile>
